<svg height="256" viewBox="0 0 256 256" width="256" xmlns="http://www.w3.org/2000/svg"><g stroke-miterlimit="10"><path d="m236.7 174.6c-.7 0-1.3-.1-2-.3-3.3-1.1-5-4.6-3.9-7.9 8.6-25.4 6.8-52.6-5.1-76.6s-32.4-42-57.8-50.6-52.6-6.8-76.6 5.1-42 32.4-50.6 57.8c-1.1 3.3-4.6 5-7.9 3.9s-5-4.6-3.9-7.9c9.7-28.5 29.9-51.6 56.9-65s57.6-15.4 86.2-5.7c28.5 9.7 51.6 29.9 65 56.9 13.3 27 15.4 57.6 5.7 86.2-.9 2.6-3.3 4.2-5.9 4.2z" fill="#8b4022" stroke="#8b4121" stroke-width="2"/><path d="m231.4 183.1c-3.6-1.3-7.5.5-8.8 4.1-5.4 14.8-15.1 25-24.2 29.8-4.1 2.1-8 3.2-11.4 3-8.8-.8-12.2-9.8-13.5-17.2-3-17.2-14.9-29.8-28.9-30.7-8.5-.5-22.9 3-35.2 27.7-.5-2.4-.9-4.7-1.3-7 9.4-12.3 18.3-29.7 25.9-53.5 8.1-25.6 6.4-46.6-4.5-54.8-5.7-4.2-12.8-4.2-19.2 0-16.2 10.8-26 46.6-16.7 104.3-10.3 11.8-20.7 16.2-29.2 14.5-3.9-.8-7.7-3.1-11.2-6.8-3.9-4.1-7.5-9.8-10.3-17.5.3 0 .5-.2.7-.2 4.8-1.6 9.4-3.1 13-3.9 3.7-.8 6-4.5 5.2-8.2s-4.5-6-8.2-5.2c-4.1.9-9.1 2.4-14.3 4.2 0 0 0 0 0-.1-2.1-11-2.9-24.4-1.8-40.3 0-1.2 0-2.4.2-3.6.3-3.8-2.5-7.1-6.3-7.5-2.8-.3-5.4 1.2-6.7 3.6-.4 2-.7 4.1-1 6.1-1.2 16.8-.4 32 2.2 45.1.1.5.2 1.2.3 1.7-6.1 2.6-11.7 5.2-15.3 7.4-3.2 2-4.3 6.2-2.3 9.5 1.3 2.1 3.6 3.3 5.9 3.3s2.5-.3 3.6-1c2.8-1.7 7.1-3.8 11.9-5.8 3.4 9.5 8 17.2 13.7 22.8 5.1 5.1 11.1 8.6 18 10 3.2.6 6.6.6 10 .2 7.9-.9 16.4-4.4 24.9-11.8 1.3 6.3 2.8 12.8 4.6 19.6.8 3 3.4 5.1 6.5 5.2 3.4 0 5.8-1.9 6.7-4.9 7.6-25.3 18.5-40.1 29.5-39.3 7.4.4 14.3 8.7 16.2 19.3 2.7 15.4 9.9 22.5 16.4 25.8 3.7 1.9 7.1 2.5 9.4 2.7.8 0 1.7.1 2.5.1 5.9 0 11.9-1.9 17.7-5.2 12.3-6.9 23.5-20.1 29.6-36.7v-.2c1.1-3.5-.6-7.3-4.1-8.6zm-126.4-11c-5-45.1 3.8-70.2 12.8-76.3 1-.7 1.7-.9 2.2-.9s.9.2 1.1.4c3.8 2.9 7.1 16.2-.3 39.6-4.7 15-10.1 27.3-15.7 37.1z" stroke="#000"/></g></svg>