<svg xmlns="http://www.w3.org/2000/svg" width="256" height="256" viewBox="0 0 256 256"><g stroke-miterlimit="10"><path fill="#115f51" stroke="#115f51" stroke-width="2" d="M236.7 174.6a6.4 6.4 0 0 1-2-.3 6.2 6.2 0 0 1-3.9-7.9A100.4 100.4 0 1 0 40.7 102a6.3 6.3 0 0 1-7.9 3.9 6.1 6.1 0 0 1-3.9-7.9 112.8 112.8 0 0 1 208-13.8 112.7 112.7 0 0 1 5.7 86.2 6.2 6.2 0 0 1-5.9 4.2z"/><path fill="#d3d3d3" stroke="#d3d3d3" d="M231.4 183.1a6.8 6.8 0 0 0-8.8 4.1c-5.4 14.8-15.1 25-24.2 29.7-4.1 2.2-8 3.3-11.4 3-8.8-.8-12.2-9.8-13.5-17.2-3.1-17.2-15-29.9-29-30.7-8.4-.5-22.9 3-35.2 27.7-.5-2.4-.9-4.7-1.3-7 9.4-12.3 18.3-29.8 25.9-53.5 8.1-25.7 6.3-46.7-4.6-54.9-5.7-4.2-12.8-4.2-19.2.1C93.9 95.2 84 131 93.3 188.7 83 200.5 72.6 205 64.2 203.3c-3.9-.8-7.8-3.2-11.3-6.8A48.1 48.1 0 0 1 42.7 179l.7-.2a118.1 118.1 0 0 1 13-3.9 6.9 6.9 0 0 0-3-13.5c-4.1 1-9.1 2.5-14.3 4.3-2.1-11-2.9-24.4-1.8-40.3.1-1.3.1-2.4.2-3.7a6.9 6.9 0 0 0-6.3-7.4 6.7 6.7 0 0 0-6.6 3.6c-.5 2-.7 4.1-1 6.1-1.2 16.8-.4 32 2.2 45 .1.6.1 1.2.2 1.7a130.8 130.8 0 0 0-15.3 7.3 6.9 6.9 0 0 0 3.6 12.8 6.8 6.8 0 0 0 3.6-1 95.3 95.3 0 0 1 11.9-5.8c3.4 9.4 8 17.2 13.7 22.8a35.2 35.2 0 0 0 18 10 33.3 33.3 0 0 0 10 .2c7.9-.9 16.4-4.4 24.9-11.8 1.3 6.3 2.8 12.8 4.6 19.6a6.7 6.7 0 0 0 6.5 5.1 6.5 6.5 0 0 0 6.7-4.9c7.7-25.2 18.5-40 29.5-39.3 7.4.5 14.3 8.8 16.2 19.4 2.7 15.4 9.9 22.5 16.4 25.8a27.8 27.8 0 0 0 9.5 2.7h2.5c5.8 0 11.8-1.9 17.6-5.1 12.4-6.9 23.6-20.1 29.6-36.7.1-.1 0-.2.1-.2a6.9 6.9 0 0 0-4.2-8.5zm-126.4-11c-5-45.1 3.7-70.2 12.7-76.3a5.1 5.1 0 0 1 2.3-.8 2 2 0 0 1 1 .3c3.9 2.9 7.2 16.2-.3 39.7a188.7 188.7 0 0 1-15.7 37.1z"/></g></svg>